<svg viewBox="0 0 430 112" xmlns="http://www.w3.org/2000/svg" role="img" aria-label="Ricos Labs lockup">
  <defs>
    <radialGradient id="lockup-field" cx="0" cy="0" r="1" gradientUnits="userSpaceOnUse" gradientTransform="translate(42 18) rotate(128) scale(48 56)">
      <stop offset="0" stop-color="#26304A"/>
      <stop offset="0.48" stop-color="#12141E"/>
      <stop offset="1" stop-color="#080912"/>
    </radialGradient>
  </defs>
  <rect width="430" height="112" rx="8" fill="#F6EFE2"/>
  <g transform="translate(24 24)">
    <rect width="64" height="64" rx="14" fill="url(#lockup-field)"/>
    <g transform="translate(4, -3)" opacity="0.4">
      <path d="M19 50V14h16c8 0 13 5 13 12s-5 12-13 12H19" fill="none" stroke="#6F4BE8" stroke-width="6" stroke-linecap="round" stroke-linejoin="round"/>
      <path d="M33 38l14 12" fill="none" stroke="#6F4BE8" stroke-width="6" stroke-linecap="round"/>
    </g>
    <g transform="translate(2, -1.5)" opacity="0.55">
      <path d="M19 50V14h16c8 0 13 5 13 12s-5 12-13 12H19" fill="none" stroke="#35C4D8" stroke-width="6" stroke-linecap="round" stroke-linejoin="round"/>
      <path d="M33 38l14 12" fill="none" stroke="#35C4D8" stroke-width="6" stroke-linecap="round"/>
    </g>
    <g>
      <path d="M19 50V14h16c8 0 13 5 13 12s-5 12-13 12H19" fill="none" stroke="#F6EFE2" stroke-width="6" stroke-linecap="round" stroke-linejoin="round"/>
      <path d="M33 38l14 12" fill="none" stroke="#F6EFE2" stroke-width="6" stroke-linecap="round"/>
    </g>
    <rect x="1" y="1" width="62" height="62" rx="13" fill="none" stroke="#F6EFE2" stroke-opacity="0.12" stroke-width="2"/>
  </g>
  <text x="108" y="58" fill="#12141E" font-family="Georgia, 'Times New Roman', serif" font-size="42" letter-spacing="0">Ricos Labs</text>
  <text x="111" y="80" fill="#D95D3E" font-family="'JetBrains Mono', 'SFMono-Regular', Consolas, monospace" font-size="10" letter-spacing="3.6">REAL-TIME SOFTWARE STUDIO</text>
</svg>
